<mxfile host="65bd71144e">
    <diagram id="n3zMHIoDVkLQkZV06Jsk" name="Page-1">
        <mxGraphModel dx="1755" dy="2360" grid="1" gridSize="10" guides="1" tooltips="1" connect="1" arrows="1" fold="1" page="1" pageScale="1" pageWidth="850" pageHeight="1100" math="1" shadow="0">
            <root>
                <mxCell id="0"/>
                <mxCell id="1" parent="0"/>
                <mxCell id="30" value="$$\begin{matrix}&lt;br&gt;E' \to \bullet \ E \\&lt;br&gt;E \to \bullet \ E \ \text{'+'} \ \underline{int} \\&lt;br&gt;E \to \bullet \ \underline{int} \\&lt;br&gt;&amp;nbsp;\end{matrix} $$" style="text;html=1;strokeColor=none;fillColor=none;align=center;verticalAlign=middle;whiteSpace=wrap;rounded=0;fontSize=30;" vertex="1" parent="1">
                    <mxGeometry x="909.92" y="20" width="310" height="180" as="geometry"/>
                </mxCell>
                <mxCell id="42" value="$$E$$" style="edgeStyle=orthogonalEdgeStyle;html=1;exitX=0;exitY=0.5;exitDx=0;exitDy=0;entryX=0;entryY=0.25;entryDx=0;entryDy=0;labelBackgroundColor=none;fontSize=30;endArrow=block;endFill=1;endSize=15;" edge="1" parent="1" source="36" target="38">
                    <mxGeometry x="0.0333" y="-30" relative="1" as="geometry">
                        <Array as="points">
                            <mxPoint x="849.92" y="105"/>
                            <mxPoint x="849.92" y="264"/>
                        </Array>
                        <mxPoint as="offset"/>
                    </mxGeometry>
                </mxCell>
                <mxCell id="45" value="$$\underline{int}$$" style="edgeStyle=orthogonalEdgeStyle;html=1;exitX=1;exitY=0.5;exitDx=0;exitDy=0;entryX=1;entryY=0.5;entryDx=0;entryDy=0;labelBackgroundColor=none;fontSize=30;endArrow=block;endFill=1;endSize=15;" edge="1" parent="1" source="36" target="41">
                    <mxGeometry x="-0.0066" y="30" relative="1" as="geometry">
                        <Array as="points">
                            <mxPoint x="1249.92" y="105"/>
                            <mxPoint x="1249.92" y="740"/>
                        </Array>
                        <mxPoint as="offset"/>
                    </mxGeometry>
                </mxCell>
                <mxCell id="36" value="" style="rounded=1;whiteSpace=wrap;html=1;fontSize=30;fillColor=none;strokeColor=#000000;" vertex="1" parent="1">
                    <mxGeometry x="909.92" y="20" width="310" height="170" as="geometry"/>
                </mxCell>
                <mxCell id="3" value="$$ E' \to \bullet \ E&amp;nbsp;$$" style="text;html=1;strokeColor=none;fillColor=none;align=center;verticalAlign=middle;whiteSpace=wrap;rounded=0;fontSize=30;" vertex="1" parent="1">
                    <mxGeometry x="175" y="50" width="270" height="40" as="geometry"/>
                </mxCell>
                <mxCell id="7" value="" style="rounded=1;whiteSpace=wrap;html=1;fontSize=30;fillColor=none;strokeColor=#000000;" vertex="1" parent="1">
                    <mxGeometry x="170" y="260" width="280" height="60" as="geometry"/>
                </mxCell>
                <mxCell id="10" value="$$E \to E&amp;nbsp; \bullet \ \text{'+'} \ \underline{int}$$" style="text;html=1;strokeColor=none;fillColor=none;align=center;verticalAlign=middle;whiteSpace=wrap;rounded=0;fontSize=30;" vertex="1" parent="1">
                    <mxGeometry x="175" y="360" width="270" height="40" as="geometry"/>
                </mxCell>
                <mxCell id="12" value="$$E \to E&amp;nbsp; \ \text{'+'} \ \bullet&lt;br&gt;\underline{int}$$" style="text;html=1;strokeColor=none;fillColor=none;align=center;verticalAlign=middle;whiteSpace=wrap;rounded=0;fontSize=30;" vertex="1" parent="1">
                    <mxGeometry x="175" y="460" width="270" height="40" as="geometry"/>
                </mxCell>
                <mxCell id="15" value="$$E \to E&amp;nbsp; \ \text{'+'} \&amp;nbsp;&lt;br&gt;\underline{int} \ \bullet&lt;br&gt;$$" style="text;html=1;strokeColor=none;fillColor=none;align=center;verticalAlign=middle;whiteSpace=wrap;rounded=0;fontSize=30;" vertex="1" parent="1">
                    <mxGeometry x="175" y="560" width="270" height="40" as="geometry"/>
                </mxCell>
                <mxCell id="16" value="" style="rounded=1;whiteSpace=wrap;html=1;fontSize=30;fillColor=none;strokeColor=#000000;" vertex="1" parent="1">
                    <mxGeometry x="165" y="700" width="280" height="60" as="geometry"/>
                </mxCell>
                <mxCell id="19" value="$$E \to \ \underline{int} \ \bullet&lt;br&gt;$$" style="text;html=1;strokeColor=none;fillColor=none;align=center;verticalAlign=middle;whiteSpace=wrap;rounded=0;fontSize=30;" vertex="1" parent="1">
                    <mxGeometry x="170" y="800" width="270" height="40" as="geometry"/>
                </mxCell>
                <mxCell id="17" value="$$E \to \bullet \ \underline{int}&amp;nbsp;&lt;br&gt;$$" style="text;html=1;strokeColor=none;fillColor=none;align=center;verticalAlign=middle;whiteSpace=wrap;rounded=0;fontSize=30;" vertex="1" parent="1">
                    <mxGeometry x="170" y="710" width="270" height="40" as="geometry"/>
                </mxCell>
                <mxCell id="8" value="$$E \to \bullet E \ \text{'+'} \ \underline{int}$$" style="text;html=1;strokeColor=none;fillColor=none;align=center;verticalAlign=middle;whiteSpace=wrap;rounded=0;fontSize=30;" vertex="1" parent="1">
                    <mxGeometry x="175" y="270" width="270" height="40" as="geometry"/>
                </mxCell>
                <mxCell id="24" value="$$E$$" style="edgeStyle=orthogonalEdgeStyle;html=1;exitX=0;exitY=0.5;exitDx=0;exitDy=0;entryX=0;entryY=0.5;entryDx=0;entryDy=0;labelBackgroundColor=none;fontSize=30;endArrow=block;endFill=1;endSize=15;" edge="1" parent="1" source="4" target="5">
                    <mxGeometry x="-0.0588" y="-30" relative="1" as="geometry">
                        <Array as="points">
                            <mxPoint x="130" y="70"/>
                            <mxPoint x="130" y="160"/>
                        </Array>
                        <mxPoint as="offset"/>
                    </mxGeometry>
                </mxCell>
                <mxCell id="25" value="$$\epsilon$$" style="edgeStyle=orthogonalEdgeStyle;html=1;exitX=1;exitY=0.75;exitDx=0;exitDy=0;entryX=0.5;entryY=0;entryDx=0;entryDy=0;labelBackgroundColor=none;fontSize=30;endArrow=block;endFill=1;endSize=15;" edge="1" parent="1" source="4" target="7">
                    <mxGeometry x="-0.2222" y="20" relative="1" as="geometry">
                        <Array as="points">
                            <mxPoint x="500" y="85"/>
                            <mxPoint x="500" y="210"/>
                            <mxPoint x="310" y="210"/>
                        </Array>
                        <mxPoint as="offset"/>
                    </mxGeometry>
                </mxCell>
                <mxCell id="29" value="&#10;&#10;&lt;span style=&quot;color: rgb(240, 240, 240); font-family: helvetica; font-size: 30px; font-style: normal; font-weight: 400; letter-spacing: normal; text-align: center; text-indent: 0px; text-transform: none; word-spacing: 0px; background-color: rgb(42, 42, 42); display: inline; float: none;&quot;&gt;$$\epsilon$$&lt;/span&gt;&#10;&#10;" style="edgeStyle=orthogonalEdgeStyle;html=1;exitX=1;exitY=0.25;exitDx=0;exitDy=0;entryX=1;entryY=0.75;entryDx=0;entryDy=0;labelBackgroundColor=none;fontSize=30;endArrow=block;endFill=1;endSize=15;" edge="1" parent="1" source="4" target="16">
                    <mxGeometry x="0.0164" y="30" relative="1" as="geometry">
                        <Array as="points">
                            <mxPoint x="560" y="55"/>
                            <mxPoint x="560" y="745"/>
                        </Array>
                        <mxPoint as="offset"/>
                    </mxGeometry>
                </mxCell>
                <mxCell id="4" value="" style="rounded=1;whiteSpace=wrap;html=1;fontSize=30;fillColor=none;strokeColor=#000000;" vertex="1" parent="1">
                    <mxGeometry x="170" y="40" width="280" height="60" as="geometry"/>
                </mxCell>
                <mxCell id="5" value="" style="rounded=1;whiteSpace=wrap;html=1;fontSize=30;fillColor=none;strokeColor=#000000;" vertex="1" parent="1">
                    <mxGeometry x="170" y="130" width="280" height="60" as="geometry"/>
                </mxCell>
                <mxCell id="6" value="$$E' \to E \ \bullet&amp;nbsp;$$" style="text;html=1;strokeColor=none;fillColor=none;align=center;verticalAlign=middle;whiteSpace=wrap;rounded=0;fontSize=30;" vertex="1" parent="1">
                    <mxGeometry x="175" y="140" width="270" height="40" as="geometry"/>
                </mxCell>
                <mxCell id="23" value="$$E$$" style="edgeStyle=orthogonalEdgeStyle;html=1;exitX=0;exitY=0.5;exitDx=0;exitDy=0;entryX=0;entryY=0.25;entryDx=0;entryDy=0;labelBackgroundColor=none;fontSize=30;endArrow=block;endFill=1;endSize=15;" edge="1" parent="1" source="7" target="9">
                    <mxGeometry x="0.0323" y="-40" relative="1" as="geometry">
                        <Array as="points">
                            <mxPoint x="130" y="290"/>
                            <mxPoint x="130" y="365"/>
                        </Array>
                        <mxPoint as="offset"/>
                    </mxGeometry>
                </mxCell>
                <mxCell id="28" value="&#10;&#10;&lt;span style=&quot;color: rgb(240, 240, 240); font-family: helvetica; font-size: 30px; font-style: normal; font-weight: 400; letter-spacing: normal; text-align: center; text-indent: 0px; text-transform: none; word-spacing: 0px; background-color: rgb(42, 42, 42); display: inline; float: none;&quot;&gt;$$\epsilon$$&lt;/span&gt;&#10;&#10;" style="edgeStyle=orthogonalEdgeStyle;html=1;exitX=1;exitY=0.75;exitDx=0;exitDy=0;labelBackgroundColor=none;fontSize=30;endArrow=block;endFill=1;endSize=15;entryX=1;entryY=0.25;entryDx=0;entryDy=0;" edge="1" parent="1" source="7" target="16">
                    <mxGeometry x="0.028" y="20" relative="1" as="geometry">
                        <mxPoint x="450" y="650" as="targetPoint"/>
                        <Array as="points">
                            <mxPoint x="510" y="305"/>
                            <mxPoint x="510" y="715"/>
                        </Array>
                        <mxPoint as="offset"/>
                    </mxGeometry>
                </mxCell>
                <mxCell id="22" value="$$\text{'+'}$$" style="edgeStyle=orthogonalEdgeStyle;html=1;exitX=0;exitY=0.75;exitDx=0;exitDy=0;entryX=0;entryY=0.25;entryDx=0;entryDy=0;labelBackgroundColor=none;fontSize=30;endArrow=block;endFill=1;endSize=15;" edge="1" parent="1" source="9" target="11">
                    <mxGeometry y="-40" relative="1" as="geometry">
                        <Array as="points">
                            <mxPoint x="130" y="395"/>
                            <mxPoint x="130" y="465"/>
                        </Array>
                        <mxPoint as="offset"/>
                    </mxGeometry>
                </mxCell>
                <mxCell id="9" value="" style="rounded=1;whiteSpace=wrap;html=1;fontSize=30;fillColor=none;strokeColor=#000000;" vertex="1" parent="1">
                    <mxGeometry x="170" y="350" width="280" height="60" as="geometry"/>
                </mxCell>
                <mxCell id="21" value="$$\underline{int}$$" style="edgeStyle=orthogonalEdgeStyle;html=1;exitX=0;exitY=0.75;exitDx=0;exitDy=0;entryX=0;entryY=0.5;entryDx=0;entryDy=0;labelBackgroundColor=none;fontSize=30;endArrow=block;endFill=1;endSize=15;" edge="1" parent="1" source="11" target="14">
                    <mxGeometry y="-50" relative="1" as="geometry">
                        <Array as="points">
                            <mxPoint x="130" y="495"/>
                            <mxPoint x="130" y="580"/>
                        </Array>
                        <mxPoint as="offset"/>
                    </mxGeometry>
                </mxCell>
                <mxCell id="11" value="" style="rounded=1;whiteSpace=wrap;html=1;fontSize=30;fillColor=none;strokeColor=#000000;" vertex="1" parent="1">
                    <mxGeometry x="170" y="450" width="280" height="60" as="geometry"/>
                </mxCell>
                <mxCell id="14" value="" style="rounded=1;whiteSpace=wrap;html=1;fontSize=30;fillColor=none;strokeColor=#000000;" vertex="1" parent="1">
                    <mxGeometry x="170" y="550" width="280" height="60" as="geometry"/>
                </mxCell>
                <mxCell id="20" value="$$\underline{int}$$" style="edgeStyle=orthogonalEdgeStyle;html=1;exitX=0;exitY=0.5;exitDx=0;exitDy=0;entryX=0;entryY=0.5;entryDx=0;entryDy=0;fontSize=30;endArrow=block;endFill=1;endSize=15;labelBackgroundColor=none;" edge="1" parent="1" source="16" target="18">
                    <mxGeometry x="-0.0625" y="-50" relative="1" as="geometry">
                        <Array as="points">
                            <mxPoint x="130" y="730"/>
                            <mxPoint x="130" y="820"/>
                        </Array>
                        <mxPoint as="offset"/>
                    </mxGeometry>
                </mxCell>
                <mxCell id="18" value="" style="rounded=1;whiteSpace=wrap;html=1;fontSize=30;fillColor=none;strokeColor=#000000;" vertex="1" parent="1">
                    <mxGeometry x="165" y="790" width="280" height="60" as="geometry"/>
                </mxCell>
                <mxCell id="27" value="$$\epsilon$$" style="html=1;exitX=1;exitY=0.25;exitDx=0;exitDy=0;labelBackgroundColor=none;fontSize=30;endArrow=block;endFill=1;endSize=15;edgeStyle=orthogonalEdgeStyle;entryX=0.75;entryY=0;entryDx=0;entryDy=0;" edge="1" parent="1" source="7" target="7">
                    <mxGeometry x="-0.4632" y="-20" relative="1" as="geometry">
                        <mxPoint x="390" y="240" as="targetPoint"/>
                        <Array as="points">
                            <mxPoint x="480" y="275"/>
                            <mxPoint x="480" y="230"/>
                            <mxPoint x="380" y="230"/>
                        </Array>
                        <mxPoint as="offset"/>
                    </mxGeometry>
                </mxCell>
                <mxCell id="31" value="$$\begin{matrix}&lt;br&gt;E' \to E \ \bullet \\&lt;br&gt;E \to E \ \bullet \ \text{'+'} \ \underline{int} \\&lt;br&gt;&amp;nbsp;\end{matrix} $$" style="text;html=1;strokeColor=none;fillColor=none;align=center;verticalAlign=middle;whiteSpace=wrap;rounded=0;fontSize=30;" vertex="1" parent="1">
                    <mxGeometry x="909.92" y="220" width="290" height="150" as="geometry"/>
                </mxCell>
                <mxCell id="33" value="$$E \to E \ \text{'+'} \ \underline{int} \ \bullet&lt;br&gt;$$" style="text;html=1;strokeColor=none;fillColor=none;align=center;verticalAlign=middle;whiteSpace=wrap;rounded=0;fontSize=30;" vertex="1" parent="1">
                    <mxGeometry x="909.92" y="410" width="310" height="90" as="geometry"/>
                </mxCell>
                <mxCell id="34" value="$$E \to E \ \text{'+'} \ \bullet \ \underline{int}&lt;br&gt;$$" style="text;html=1;strokeColor=none;fillColor=none;align=center;verticalAlign=middle;whiteSpace=wrap;rounded=0;fontSize=30;" vertex="1" parent="1">
                    <mxGeometry x="899.92" y="570" width="310" height="80" as="geometry"/>
                </mxCell>
                <mxCell id="35" value="$$E \to \underline{int} \ \bullet&lt;br&gt;$$" style="text;html=1;strokeColor=none;fillColor=none;align=center;verticalAlign=middle;whiteSpace=wrap;rounded=0;fontSize=30;" vertex="1" parent="1">
                    <mxGeometry x="949.92" y="707.5" width="240" height="70" as="geometry"/>
                </mxCell>
                <mxCell id="43" value="$$\text{'+'}$$" style="edgeStyle=orthogonalEdgeStyle;html=1;exitX=0;exitY=0.75;exitDx=0;exitDy=0;entryX=0;entryY=0.25;entryDx=0;entryDy=0;labelBackgroundColor=none;fontSize=30;endArrow=block;endFill=1;endSize=15;" edge="1" parent="1" source="38" target="39">
                    <mxGeometry x="0.0282" y="-30" relative="1" as="geometry">
                        <Array as="points">
                            <mxPoint x="849.92" y="326"/>
                            <mxPoint x="849.92" y="437"/>
                        </Array>
                        <mxPoint as="offset"/>
                    </mxGeometry>
                </mxCell>
                <mxCell id="38" value="" style="rounded=1;whiteSpace=wrap;html=1;fontSize=30;fillColor=none;strokeColor=#000000;" vertex="1" parent="1">
                    <mxGeometry x="899.92" y="232.5" width="310" height="125" as="geometry"/>
                </mxCell>
                <mxCell id="44" value="$$\underline{int}$$" style="edgeStyle=orthogonalEdgeStyle;html=1;exitX=0;exitY=0.75;exitDx=0;exitDy=0;entryX=0;entryY=0.5;entryDx=0;entryDy=0;labelBackgroundColor=none;fontSize=30;endArrow=block;endFill=1;endSize=15;" edge="1" parent="1" source="39" target="40">
                    <mxGeometry y="-40" relative="1" as="geometry">
                        <Array as="points">
                            <mxPoint x="849.92" y="483"/>
                            <mxPoint x="849.92" y="607"/>
                        </Array>
                        <mxPoint as="offset"/>
                    </mxGeometry>
                </mxCell>
                <mxCell id="39" value="" style="rounded=1;whiteSpace=wrap;html=1;fontSize=30;fillColor=none;strokeColor=#000000;" vertex="1" parent="1">
                    <mxGeometry x="909.92" y="415" width="310" height="90" as="geometry"/>
                </mxCell>
                <mxCell id="40" value="" style="rounded=1;whiteSpace=wrap;html=1;fontSize=30;fillColor=none;strokeColor=#000000;" vertex="1" parent="1">
                    <mxGeometry x="899.92" y="570" width="310" height="75" as="geometry"/>
                </mxCell>
                <mxCell id="41" value="" style="rounded=1;whiteSpace=wrap;html=1;fontSize=30;fillColor=none;strokeColor=#000000;" vertex="1" parent="1">
                    <mxGeometry x="969.92" y="702.5" width="190" height="75" as="geometry"/>
                </mxCell>
                <mxCell id="46" value="$$NFA$$" style="text;html=1;strokeColor=none;fillColor=none;align=center;verticalAlign=middle;whiteSpace=wrap;rounded=0;fontSize=30;" vertex="1" parent="1">
                    <mxGeometry x="275" y="-30" width="60" height="30" as="geometry"/>
                </mxCell>
                <mxCell id="47" value="$$DFA$$" style="text;html=1;strokeColor=none;fillColor=none;align=center;verticalAlign=middle;whiteSpace=wrap;rounded=0;fontSize=30;" vertex="1" parent="1">
                    <mxGeometry x="1010" y="-30" width="60" height="30" as="geometry"/>
                </mxCell>
            </root>
        </mxGraphModel>
    </diagram>
</mxfile>